<svg width="16" height="22" viewBox="0 0 16 22" fill="none" xmlns="http://www.w3.org/2000/svg">
<path d="M7.99996 21.0719C6.55646 19.8406 5.21847 18.4907 3.99998 17.0364C2.17142 14.8525 1.00989e-06 11.5999 1.00989e-06 8.50049C-0.00161974 5.26342 1.9477 2.3444 4.93834 1.10555C7.92898 -0.133289 11.3714 0.552234 13.6594 2.84223C15.1639 4.34006 16.0067 6.37752 16 8.50049C16 11.5999 13.8285 14.8525 11.9999 17.0364C10.7814 18.4907 9.44346 19.8406 7.99996 21.0719ZM7.99996 2.78623C4.84563 2.79001 2.28948 5.34616 2.2857 8.50049C2.2857 9.83305 2.88799 12.1405 5.75426 15.5702C6.4607 16.4137 7.21027 17.2201 7.99996 17.9862C8.78972 17.221 9.53966 16.4157 10.2468 15.5736C13.1119 12.1393 13.7142 9.83191 13.7142 8.50049C13.7104 5.34616 11.1543 2.79001 7.99996 2.78623ZM7.99996 11.929C6.10642 11.929 4.57141 10.394 4.57141 8.50049C4.57141 6.60695 6.10642 5.07194 7.99996 5.07194C9.8935 5.07194 11.4285 6.60695 11.4285 8.50049C11.4285 9.4098 11.0673 10.2819 10.4243 10.9248C9.78134 11.5678 8.90927 11.929 7.99996 11.929Z" fill="white"/>
</svg>
