<svg width="37" height="37" viewBox="0 0 37 37" fill="none" xmlns="http://www.w3.org/2000/svg">
<g clip-path="url(#clip0_470_2972)">
<path d="M9.81687 9.66117C14.6984 4.77961 22.613 4.77961 27.4945 9.66117C32.3761 14.5427 32.3761 22.4573 27.4945 27.3388C22.613 32.2204 14.6984 32.2204 9.81687 27.3388C4.9429 22.4541 4.9429 14.5459 9.81687 9.66117ZM25.7268 25.5711C29.6101 21.6858 29.6324 15.3954 25.7766 11.4828C21.9209 7.57007 15.6309 7.50009 11.6891 11.326C7.74729 15.152 7.62961 21.4412 11.4255 25.412L9.84958 23.836L11.5846 25.5711C15.4924 29.4701 21.819 29.4701 25.7268 25.5711ZM14.2363 14.0806H23.0751V22.9194H20.5826L20.5737 18.3497L15.1202 23.8033L13.3524 22.0355L18.806 16.582L14.2363 16.5731L14.2363 14.0806Z" fill="#575757"/>
</g>
<defs>
<clipPath id="clip0_470_2972">
<rect width="25" height="25" fill="white" transform="translate(36.3334 18.5) rotate(135)"/>
</clipPath>
</defs>
</svg>
