<svg width="37" height="37" viewBox="0 0 37 37" fill="none" xmlns="http://www.w3.org/2000/svg">
<g clip-path="url(#clip0_470_1472)">
<path d="M9.82779 27.3388C4.94624 22.4573 4.94624 14.5427 9.82779 9.66116C14.7093 4.77961 22.6239 4.77961 27.5055 9.66116C32.387 14.5427 32.387 22.4573 27.5055 27.3388C22.6208 32.2128 14.7125 32.2128 9.82779 27.3388ZM25.7377 11.4289C21.8524 7.5456 15.5621 7.52333 11.6494 11.3791C7.73669 15.2348 7.66672 21.5248 11.4927 25.4666C15.3186 29.4084 21.6079 29.5261 25.5786 25.7302L24.0026 27.3061L25.7377 25.5711C29.6367 21.6633 29.6367 15.3367 25.7377 11.4289ZM14.2472 22.9194V14.0806H23.086V16.5731L18.5164 16.582L23.9699 22.0355L22.2022 23.8033L16.7486 18.3497L16.7398 22.9194L14.2472 22.9194Z" fill="#575757"/>
</g>
<defs>
<clipPath id="clip0_470_1472">
<rect width="25" height="25" fill="white" transform="translate(18.6666 0.822327) rotate(45)"/>
</clipPath>
</defs>
</svg>
